# xmcd
#
# Track frame offsets: 
#        150
#        16179
#        30656
#        45139
#        59152
#        72365
#        89967
#        108833
#        124758
#        141216
#
# Disc length: 2049 seconds
#
# Revision: 0
# Processed by: cddbd v1.5.2PL0 Copyright (c) Steve Scherf et al.
# Submitted via: ExactAudioCopyFreeDBPlugin 1.0
#
DISCID=8907ff0a
DTITLE=Justin Moore - Late Nights And Longnecks
DYEAR=2019
DGENRE=Country
TTITLE0=Why We Drink
TTITLE1=That's My Boy
TTITLE2=The Ones That Didn't Make It
TTITLE3=Jesus And Jack Daniels
TTITLE4=Airport Bar
TTITLE5=Small Town Street Cred
TTITLE6=Never Gonna Drink Again
TTITLE7=On The Rocks
TTITLE8=Someday I Gotta Quit
TTITLE9=Good Times Don't
EXTD=
EXTT0=
EXTT1=
EXTT2=
EXTT3=
EXTT4=
EXTT5=
EXTT6=
EXTT7=
EXTT8=
EXTT9=
PLAYORDER=
